<svg width="78" height="54" viewBox="0 0 78 54" fill="none" xmlns="http://www.w3.org/2000/svg">
<path d="M1 6.5L2.5 3.5L5.5 1L8.5 3.5L11.5 7V47L9.5 49.5L5.5 53L3 51L1 47.5V6.5Z" fill="#E1EAF5"/>
<path d="M8.5 0.5C4.35786 0.5 1 3.85786 1 8V46C1 50.1421 4.35786 53.5 8.5 53.5H69.5C73.6421 53.5 77 50.1421 77 46V8C77 3.85787 73.6421 0.5 69.5 0.5H8.5Z" stroke="#071528"/>
<path d="M26.5 25H56.5" stroke="#071528" stroke-linecap="round"/>
<path d="M26.5 27.5C26.2239 27.5 26 27.7239 26 28C26 28.2761 26.2239 28.5 26.5 28.5V27.5ZM26.5 28.5H40.5V27.5H26.5V28.5Z" fill="#071528"/>
<path d="M50.5 28.5C50.7761 28.5 51 28.2761 51 28C51 27.7239 50.7761 27.5 50.5 27.5V28.5ZM42.5 28.5H50.5V27.5H42.5V28.5Z" fill="#071528"/>
<path d="M26.5 31H46.5" stroke="#071528" stroke-linecap="round"/>
<path d="M26.5 34H39.5" stroke="#071528" stroke-linecap="round"/>
<circle cx="66.5" cy="11" r="4.5" stroke="#071528"/>
<path d="M5.5 1L9.70092 4.50077C10.8409 5.45074 11.5 6.85798 11.5 8.34187L11.5 45.6581C11.5 47.142 10.8409 48.5493 9.70092 49.4992L5.5 53" stroke="#071528"/>
</svg>
