<svg width="85" height="54" viewBox="0 0 85 54" fill="none" xmlns="http://www.w3.org/2000/svg">
<path d="M21.75 6.89722L63.25 20.2886" stroke="#071528" stroke-linecap="round" stroke-linejoin="round"/>
<path d="M84 16.5963C83.9983 15.6843 83.5714 14.7886 82.7621 13.999C81.9528 13.2095 80.7895 12.5538 79.3889 12.0978L47.1111 1.69674C45.7092 1.2403 44.1188 1 42.5 1C40.8812 1 39.2908 1.2403 37.8889 1.69674L5.61111 12.0978C4.21054 12.5538 3.04724 13.2095 2.23791 13.999C1.42857 14.7886 1.00166 15.6843 1 16.5963V37.3985C1.00166 38.3104 1.42857 39.2061 2.23791 39.9957C3.04724 40.7853 4.21054 41.4409 5.61111 41.8969L37.8889 52.298C39.2908 52.7545 40.8812 52.9948 42.5 52.9948C44.1188 52.9948 45.7092 52.7545 47.1111 52.298L79.3889 41.8969C80.7895 41.4409 81.9528 40.7853 82.7621 39.9957C83.5714 39.2061 83.9983 38.3104 84 37.3985V16.5963Z" stroke="#071528" stroke-linecap="round" stroke-linejoin="round"/>
<path d="M2.3833 13.9958L42.5 26.9972L82.6166 13.9958" stroke="#071528" stroke-linecap="round" stroke-linejoin="round"/>
<path d="M42.5 53V26.9973" stroke="#071528" stroke-linecap="round" stroke-linejoin="round"/>
</svg>
