<svg width="40" height="40" viewBox="0 0 40 40" fill="none" xmlns="http://www.w3.org/2000/svg">
<mask id="mask0_361_49" style="mask-type:luminance" maskUnits="userSpaceOnUse" x="5" y="0" width="30" height="40">
<path d="M5.48376 0.320007H34.4534V39.7867H5.48376V0.320007Z" fill="white"/>
</mask>
<g mask="url(#mask0_361_49)">
<path d="M34.0342 16.83L27.2575 13.7692V4.45669C27.2575 4.41294 27.2575 4.36919 27.2138 4.32544C27.17 4.10669 27.0388 3.84461 26.82 3.75711L20.3492 0.434192C20.1308 0.302942 19.8683 0.302942 19.6496 0.434192L12.7854 3.71336C12.7417 3.75711 12.6979 3.75711 12.6542 3.80086C12.4796 3.93211 12.3046 4.15044 12.3046 4.41294V9.57211L5.92126 12.6325C5.87751 12.6325 5.87751 12.6763 5.87751 12.6763C5.61501 12.8075 5.48376 13.07 5.48376 13.3759V32.2638C5.48376 32.5696 5.65876 32.8321 5.92126 33.0071L19.6063 39.6088C19.7371 39.6525 19.8246 39.6963 19.9558 39.6963C20.0871 39.6963 20.1746 39.6525 20.3054 39.6088L33.9904 33.0071C34.2529 32.8759 34.4279 32.6134 34.4279 32.2638V17.5734C34.515 17.2671 34.3404 16.9613 34.0342 16.83ZM13.9221 5.72461L19.1688 8.21669V12.1517L13.9221 9.61586V5.72461ZM25.6396 13.7692L20.8304 16.2179V8.04169L25.6396 5.72461V13.7692ZM26.0333 26.9296L20.7867 24.35V18.8413L26.0333 21.3771V26.9296ZM19.1688 17.4421C19.1688 17.5296 19.1688 17.6171 19.1688 17.7042V24.3938L13.9221 26.9734V17.2234L19.1688 14.6875V17.4421ZM13.9221 29.5092L19.1688 32.045V37.6413L13.9221 35.1054V29.5092ZM19.9996 30.6459L14.9717 28.2413L19.9996 25.7492L25.0275 28.1975L19.9996 30.6459ZM26.82 19.9342L21.7483 17.4859L26.4267 15.1246L31.8046 17.5734L26.82 19.9342ZM19.9558 2.05211L24.5904 4.41294L19.7808 6.73003L14.9717 4.45669L19.9558 2.05211ZM13.1354 11.015L18.1196 13.4196L13.1354 15.8242L8.15085 13.4196L13.1354 11.015ZM7.10168 14.6875L12.3483 17.2234V34.275L7.10168 31.7392V14.6875ZM20.7867 32.045L26.0333 29.5092V35.0617L20.7867 37.5979V32.045ZM27.6508 34.275V21.3334L32.8975 18.8413V31.7829L27.6508 34.275Z" fill="white"/>
</g>
</svg>
