<svg width="85" height="47" viewBox="0 0 85 47" fill="none" xmlns="http://www.w3.org/2000/svg">
<path d="M21.75 6.10327L63.25 17.692" stroke="#071528" stroke-linecap="round" stroke-linejoin="round"/>
<path d="M84 14.4968C83.9983 13.7076 83.5714 12.9324 82.7621 12.2492C81.9528 11.5659 80.7895 10.9985 79.3889 10.6039L47.1111 1.60295C45.7092 1.20795 44.1188 1 42.5 1C40.8812 1 39.2908 1.20795 37.8889 1.60295L5.61111 10.6039C4.21054 10.9985 3.04724 11.5659 2.23791 12.2492C1.42857 12.9324 1.00166 13.7076 1 14.4968V32.4987C1.00166 33.2879 1.42857 34.063 2.23791 34.7463C3.04724 35.4296 4.21054 35.997 5.61111 36.3916L37.8889 45.3925C39.2908 45.7875 40.8812 45.9955 42.5 45.9955C44.1188 45.9955 45.7092 45.7875 47.1111 45.3925L79.3889 36.3916C80.7895 35.997 81.9528 35.4296 82.7621 34.7463C83.5714 34.063 83.9983 33.2879 84 32.4987V14.4968Z" stroke="#071528" stroke-linecap="round" stroke-linejoin="round"/>
<path d="M2.38354 12.2466L42.5002 23.4978L82.6169 12.2466" stroke="#071528" stroke-linecap="round" stroke-linejoin="round"/>
<path d="M42.5 45.9999V23.4976" stroke="#071528" stroke-linecap="round" stroke-linejoin="round"/>
</svg>
